<svg width="295" height="148" viewBox="0 0 295 148" fill="none" xmlns="http://www.w3.org/2000/svg">
<g clip-path="url(#clip0_2_122)">
<path d="M10 59.88C13.8947 59.4118 17.2941 58.3276 20.8725 57.408C25.8521 56.1284 31.1031 55.3337 36.5487 54.8854C46.3906 54.0752 55.5277 54.9625 64.5032 57.1925C68.3092 58.1382 72.1794 58.978 76.0084 59.8927C80.8966 61.0603 85.3495 62.6286 90.6067 63.29C97.2992 64.132 104.474 64.3683 111.086 63.2012C122.054 61.2656 131.614 57.5014 142.064 54.9361C149.989 52.9905 158.546 52.5217 166.293 54.9108C177.893 58.4886 190.768 59.4944 203.972 57.6996C214.896 56.2147 225.115 53.4867 235.792 51.5895C242.127 50.4639 249.579 49.4664 256.272 50.3218C259.601 50.7473 262.721 51.4795 266.114 51.7923C269.319 52.0878 272.617 52.2075 275.861 52.2994C278.903 52.3855 281.955 52.3501 285 52.3501" stroke="#212121" stroke-linecap="round" stroke-linejoin="round"/>
<path d="M10.098 108.907C14.0225 108.581 17.5047 107.621 21.1518 106.832C26.2269 105.734 31.5319 105.131 37.0017 104.88C46.8875 104.426 55.9272 105.642 64.6926 108.193C68.4095 109.275 72.1993 110.253 75.9418 111.305C80.7195 112.648 85.0292 114.374 90.2176 115.225C96.8226 116.307 103.96 116.802 110.654 115.876C121.757 114.34 131.611 110.927 142.251 108.743C150.321 107.087 158.896 106.928 166.422 109.593C177.693 113.585 190.45 115.054 203.773 113.739C214.795 112.651 225.219 110.296 236.03 108.788C242.444 107.893 249.961 107.166 256.565 108.262C259.85 108.807 262.9 109.651 266.259 110.086C269.431 110.497 272.711 110.736 275.94 110.945C278.966 111.14 282.014 111.215 285.051 111.325" stroke="#212121" stroke-linecap="round" stroke-linejoin="round"/>
<path d="M10 79.211C19.7382 77.7469 29.228 74.426 39.3638 76.8735C50.6223 79.5922 59.0674 85.6648 70.0624 88.5452C76.5358 90.2411 84.3448 90.5059 90.9651 89.0664C99.3594 87.2412 106.791 83.7554 115.348 82.1803C119.438 81.4274 124.479 80.8085 128.742 81.3274C132.784 81.8194 135.923 83.3398 140.159 83.6017C144.926 83.8966 149.566 83.3257 154.317 83.2069C158.37 83.1055 162.195 83.9919 166.186 84.3125C176.949 85.1769 186.889 82.6526 196.67 79.9691C203.992 77.9603 211.911 75.744 220.028 76.4945C225.384 76.9898 230.172 78.2318 235.711 78.2318C241.936 78.2318 247.866 76.7767 254.087 76.6682C264.623 76.4845 274.373 78.9163 285 77.7896" stroke="#212121" stroke-linecap="round" stroke-linejoin="round"/>
<path d="M285 130.873C275.262 129.409 265.772 126.088 255.636 128.536C244.378 131.254 235.933 137.327 224.938 140.207C218.464 141.903 210.655 142.168 204.035 140.728C195.641 138.903 188.209 135.417 179.652 133.842C175.562 133.089 170.521 132.47 166.258 132.989C162.216 133.481 159.077 135.002 154.841 135.264C150.074 135.559 145.434 134.988 140.683 134.869C136.63 134.768 132.805 135.654 128.814 135.974C118.051 136.839 108.111 134.315 98.3299 131.631C91.0076 129.622 83.0893 127.406 74.9723 128.156C69.6159 128.652 64.8278 129.894 59.2893 129.894C53.0643 129.894 47.1337 128.439 40.9131 128.33C30.3766 128.146 20.6266 130.578 10 129.452" stroke="#212121" stroke-linecap="round" stroke-linejoin="round"/>
<path d="M10 35.8245C19.7865 35.7165 29.0533 33.3693 38.7222 32.8113C41.807 32.6333 45.7875 32.0176 48.406 33.3018C50.2368 34.1998 50.8487 35.4974 52.2842 36.5673C58.2166 40.9889 69.7566 41.0195 78.3504 40.3373C90.9013 39.3409 102.266 35.3483 114.594 33.7503C118.784 33.2072 124.911 32.5988 128.556 34.3109C131.244 35.5738 134.114 36.6687 137.628 36.7775C147.348 37.0786 156.886 33.809 165.974 32.2367C175.461 30.5956 185.723 30.4159 195.543 30.8913C198.996 31.0585 202.292 31.5699 205.65 32.0405C210.804 32.7629 215.888 33.0451 221.186 33.0075C229.018 32.9519 236.368 31.534 244.103 31.3117C249.316 31.1619 254.586 31.2837 259.803 31.2837C268.272 31.2837 276.614 31.4043 285 30.7792" stroke="#212121" stroke-linecap="round" stroke-linejoin="round"/>
<path d="M10 17.7741C11.5241 16.8016 22.3654 9.60893 25.1822 12.1157C27.4348 14.1203 31.1832 15.4055 34.6378 16.3306C43.2418 18.6346 52.6508 18.9381 61.8503 18.4814C72.2872 17.9633 82.0524 14.7697 92.0371 12.9529C95.7404 12.279 100.926 11.2249 104.867 11.9424C107.168 12.3616 108.742 13.8342 111.081 14.3963C115.298 15.4099 120.673 14.8866 124.976 14.483C130.87 13.9302 136.267 12.2412 142.067 11.4517C148.658 10.5546 154.283 10.9849 160.268 12.823C168.594 15.3799 177.954 15.217 186.815 14.1943C192.696 13.5154 199.98 12.5422 205.77 14.0355C209.516 15.0014 213.046 15.7035 217.157 15.6089C221.663 15.5051 225.641 14.2765 229.787 13.2704C231.786 12.7852 232.944 12.4645 234.936 12.7797C238.113 13.2821 241.511 13.0972 244.747 13.0972C257.054 13.0972 269.366 13.6169 281.681 13.6169" stroke="#212121" stroke-linecap="round" stroke-linejoin="round"/>
</g>
<defs>
<clipPath id="clip0_2_122">
<rect width="295" height="148" fill="white"/>
</clipPath>
</defs>
</svg>
