<svg width="200" height="13" viewBox="0 0 200 13" fill="none" xmlns="http://www.w3.org/2000/svg">
<path d="M10.265 20.3191C17.088 20.1296 23.3567 16.3787 30.1473 16.3787C31.0749 16.3787 30.4229 17.1874 30.7139 17.7694C31.1429 18.6275 32.7225 19.3204 33.5726 19.3791C39.5743 19.793 45.4597 17.1823 51.034 15.3614C55.2357 13.9888 59.683 12.5442 64.1043 12.1163C65.4764 11.9836 67.708 11.5827 69.0878 12.0262C70.2959 12.4145 70.2883 14.9769 70.9936 15.8636C73.7186 19.2893 80.3806 17.6527 83.7033 16.5847C86.5518 15.6691 89.5208 13.706 92.5113 13.3912C93.0637 13.333 94.1463 13.1744 94.6489 13.52C97.0384 15.1627 97.0826 18.5971 100.225 19.5722C106.469 21.5101 111.709 15.0662 117.313 13.7389C118.445 13.4707 119.122 13.4878 119.682 14.5372C120.457 15.9907 121.21 17.5718 123.043 17.7179C128.724 18.1707 133.904 15.1106 138.882 12.8246C142.626 11.1051 146.731 8.81508 150.961 8.65239C153.363 8.55998 154.707 9.86523 156.395 11.3308C157.964 12.6934 159.852 13.5879 161.842 14.1638C167.222 15.7213 173.003 15.4515 178.543 15.4515" stroke="#212121" stroke-linecap="round" stroke-linejoin="round"/>
</svg>
