<svg width="295" height="47" viewBox="0 0 295 47" fill="none" xmlns="http://www.w3.org/2000/svg">
<path d="M7 20.3061C11.3137 18.8992 15.2402 16.8579 19.319 15.1242C22.6246 13.7192 26.6904 11.6554 30.5611 11.2729C32.6667 11.0648 33.2706 10.9708 33.9431 12.3513C34.8591 14.2315 35.4172 16.1402 35.9837 18.0933C36.6046 20.2341 36.6519 23.8152 39.0634 25.3898C41.9902 27.301 47.7153 24.2128 50.1165 23.093C57.1473 19.8144 63.5482 15.8115 70.22 12.1552C72.4483 10.934 74.9483 9.18938 77.6643 8.56994C79.1631 8.22811 79.3049 9.28022 79.6104 10.1105C80.0492 11.3031 80.4029 12.4359 81.5754 13.3736C85.7045 16.6759 96.0934 18.8568 101.227 18.1283C113.132 16.4384 122.417 15.0807 133.1 11.0978C138.884 8.94128 145.758 6 152.466 6C159.492 6 157.573 14.7505 160.27 18.1283C161.513 19.6853 163.757 19.6819 165.9 19.2486C168.936 18.6349 171.673 17.7508 174.856 17.5961C177.08 17.488 178.8 17.7443 180.449 18.9125C183.23 20.8838 184.897 22.5734 188.97 23.03C194.441 23.6434 199.124 22.7344 204.161 21.2233C207.143 20.3287 210.871 18.8318 214.232 19.1086C215.887 19.2449 216.322 20.658 217.897 20.9012C220.8 21.3495 224.628 20.1843 227.193 19.5007C232.37 18.1211 236.906 16.1641 241.59 14.0808C243.984 13.0164 247.532 10.956 250.452 10.7757C251.994 10.6804 252.023 12.9272 252.209 13.6467C252.434 14.5206 252.353 15.924 253.645 16.3636C255.012 16.8287 257.159 16.5317 258.633 16.5317C260.981 16.5317 262.093 16.979 264.263 17.5961C267.459 18.5046 270.467 18.7512 273.899 18.7865C279.931 18.8486 285.967 18.8005 292 18.8005" stroke="#212121" stroke-width="1.5" stroke-linecap="round" stroke-linejoin="round"/>
</svg>
