<svg width="236" height="17" viewBox="0 0 236 17" fill="none" xmlns="http://www.w3.org/2000/svg">
<path d="M8.33333 1L10.9083 6.21667L16.6667 7.05833L12.5 11.1167L13.4833 16.85L8.33333 14.1417L3.18333 16.85L4.16667 11.1167L0 7.05833L5.75833 6.21667L8.33333 1Z" fill="#FFC226"/>
<path d="M26.3333 1L28.9083 6.21667L34.6667 7.05833L30.5 11.1167L31.4833 16.85L26.3333 14.1417L21.1833 16.85L22.1667 11.1167L18 7.05833L23.7583 6.21667L26.3333 1Z" fill="#FFC226"/>
<path d="M45.3333 1L47.9083 6.21667L53.6667 7.05833L49.5 11.1167L50.4833 16.85L45.3333 14.1417L40.1833 16.85L41.1667 11.1167L37 7.05833L42.7583 6.21667L45.3333 1Z" fill="#FFC226"/>
<path d="M64.3333 1L66.9083 6.21667L72.6667 7.05833L68.5 11.1167L69.4833 16.85L64.3333 14.1417L59.1833 16.85L60.1667 11.1167L56 7.05833L61.7583 6.21667L64.3333 1Z" fill="#FFC226"/>
<path d="M83.3333 1L85.9083 6.21667L91.6667 7.05833L87.5 11.1167L88.4833 16.85L83.3333 14.1417L78.1833 16.85L79.1667 11.1167L75 7.05833L80.7583 6.21667L83.3333 1Z" fill="#D9D9D9"/>
<path d="M152.333 0L154.908 5.21667L160.667 6.05833L156.5 10.1167L157.483 15.85L152.333 13.1417L147.183 15.85L148.167 10.1167L144 6.05833L149.758 5.21667L152.333 0Z" fill="#FFC226"/>
<path d="M170.333 0L172.908 5.21667L178.667 6.05833L174.5 10.1167L175.483 15.85L170.333 13.1417L165.183 15.85L166.167 10.1167L162 6.05833L167.758 5.21667L170.333 0Z" fill="#FFC226"/>
<path d="M189.333 0L191.908 5.21667L197.667 6.05833L193.5 10.1167L194.483 15.85L189.333 13.1417L184.183 15.85L185.167 10.1167L181 6.05833L186.758 5.21667L189.333 0Z" fill="#FFC226"/>
<path d="M208.333 0L210.908 5.21667L216.667 6.05833L212.5 10.1167L213.483 15.85L208.333 13.1417L203.183 15.85L204.167 10.1167L200 6.05833L205.758 5.21667L208.333 0Z" fill="#D9D9D9"/>
<path d="M227.333 0L229.908 5.21667L235.667 6.05833L231.5 10.1167L232.483 15.85L227.333 13.1417L222.183 15.85L223.167 10.1167L219 6.05833L224.758 5.21667L227.333 0Z" fill="#D9D9D9"/>
</svg>
