<svg width="16" height="11" viewBox="0 0 16 11" fill="none" xmlns="http://www.w3.org/2000/svg">
<path fill-rule="evenodd" clip-rule="evenodd" d="M13.9397 4.65566C12.3338 3.12886 10.2026 2.27742 7.9867 2.27733C5.77059 2.27732 3.63919 3.12876 2.03304 4.65566C1.91218 4.77372 1.71873 4.77223 1.5997 4.65233L0.44337 3.48566C0.383106 3.42489 0.349542 3.34262 0.350105 3.25704C0.350668 3.17146 0.385312 3.08963 0.44637 3.02966C4.66147 -1.00989 11.3113 -1.00989 15.5264 3.02966C15.5874 3.08967 15.622 3.17153 15.6225 3.25711C15.623 3.34269 15.5893 3.42494 15.529 3.48566L14.373 4.65233C14.2539 4.77205 14.0606 4.77354 13.9397 4.65566ZM7.98675 6.07299C9.20424 6.07292 10.3783 6.52545 11.2808 7.34266C11.4028 7.45864 11.5951 7.45612 11.7141 7.33699L12.8688 6.17032C12.9296 6.10913 12.9633 6.02611 12.9624 5.93985C12.9615 5.85358 12.9261 5.77127 12.8641 5.71132C10.1159 3.15494 5.85995 3.15494 3.11175 5.71132C3.04967 5.77127 3.01426 5.85362 3.01344 5.93992C3.01263 6.02621 3.04648 6.10922 3.10742 6.17032L4.26175 7.33699C4.38074 7.45612 4.57302 7.45864 4.69509 7.34266C5.59696 6.52599 6.77007 6.07349 7.98675 6.07299ZM10.2057 8.85733C10.2675 8.79672 10.3015 8.71332 10.2997 8.62681C10.2979 8.54031 10.2605 8.45836 10.1964 8.40033C8.9208 7.32144 7.05261 7.32144 5.77704 8.40033C5.71282 8.45831 5.67537 8.54023 5.67354 8.62674C5.67171 8.71325 5.70566 8.79668 5.76737 8.85733L7.76504 10.873C7.82359 10.9322 7.90341 10.9656 7.9867 10.9656C8.06999 10.9656 8.14982 10.9322 8.20837 10.873L10.2057 8.85733Z" fill="#020202"/>
</svg>
