<svg width="352" height="33" viewBox="0 0 352 33" fill="none" xmlns="http://www.w3.org/2000/svg">
<rect width="352" height="32.0024" rx="9" fill="#E0E0E0"/>
<rect x="2" y="2" width="174" height="28.0024" rx="7" fill="white"/>
<path d="M62.4189 10.545C63.5589 10.545 64.5439 10.76 65.3739 11.19C66.2139 11.61 66.8539 12.215 67.2939 13.005C67.7439 13.795 67.9689 14.725 67.9689 15.795C67.9689 16.865 67.7439 17.795 67.2939 18.585C66.8539 19.365 66.2139 19.965 65.3739 20.385C64.5439 20.795 63.5589 21 62.4189 21H59.1639V10.545H62.4189ZM62.4189 19.875C63.7689 19.875 64.7989 19.52 65.5089 18.81C66.2189 18.09 66.5739 17.085 66.5739 15.795C66.5739 14.495 66.2139 13.48 65.4939 12.75C64.7839 12.02 63.7589 11.655 62.4189 11.655H60.5289V19.875H62.4189ZM70.8944 14.115C71.1344 13.645 71.4744 13.28 71.9144 13.02C72.3644 12.76 72.9094 12.63 73.5494 12.63V14.04H73.1894C71.6594 14.04 70.8944 14.87 70.8944 16.53V21H69.5294V12.78H70.8944V14.115ZM78.4701 21.135C77.7001 21.135 77.0001 20.96 76.3701 20.61C75.7501 20.26 75.2601 19.765 74.9001 19.125C74.5501 18.475 74.3751 17.725 74.3751 16.875C74.3751 16.035 74.5551 15.295 74.9151 14.655C75.2851 14.005 75.7851 13.51 76.4151 13.17C77.0451 12.82 77.7501 12.645 78.5301 12.645C79.3101 12.645 80.0151 12.82 80.6451 13.17C81.2751 13.51 81.7701 14 82.1301 14.64C82.5001 15.28 82.6851 16.025 82.6851 16.875C82.6851 17.725 82.4951 18.475 82.1151 19.125C81.7451 19.765 81.2401 20.26 80.6001 20.61C79.9601 20.96 79.2501 21.135 78.4701 21.135ZM78.4701 19.935C78.9601 19.935 79.4201 19.82 79.8501 19.59C80.2801 19.36 80.6251 19.015 80.8851 18.555C81.1551 18.095 81.2901 17.535 81.2901 16.875C81.2901 16.215 81.1601 15.655 80.9001 15.195C80.6401 14.735 80.3001 14.395 79.8801 14.175C79.4601 13.945 79.0051 13.83 78.5151 13.83C78.0151 13.83 77.5551 13.945 77.1351 14.175C76.7251 14.395 76.3951 14.735 76.1451 15.195C75.8951 15.655 75.7701 16.215 75.7701 16.875C75.7701 17.545 75.8901 18.11 76.1301 18.57C76.3801 19.03 76.7101 19.375 77.1201 19.605C77.5301 19.825 77.9801 19.935 78.4701 19.935ZM85.6048 14.295C85.8748 13.825 86.2748 13.435 86.8048 13.125C87.3448 12.805 87.9698 12.645 88.6798 12.645C89.4098 12.645 90.0698 12.82 90.6598 13.17C91.2598 13.52 91.7298 14.015 92.0698 14.655C92.4098 15.285 92.5798 16.02 92.5798 16.86C92.5798 17.69 92.4098 18.43 92.0698 19.08C91.7298 19.73 91.2598 20.235 90.6598 20.595C90.0698 20.955 89.4098 21.135 88.6798 21.135C87.9798 21.135 87.3598 20.98 86.8198 20.67C86.2898 20.35 85.8848 19.955 85.6048 19.485V24.9H84.2398V12.78H85.6048V14.295ZM91.1848 16.86C91.1848 16.24 91.0598 15.7 90.8098 15.24C90.5598 14.78 90.2198 14.43 89.7898 14.19C89.3698 13.95 88.9048 13.83 88.3948 13.83C87.8948 13.83 87.4298 13.955 86.9998 14.205C86.5798 14.445 86.2398 14.8 85.9798 15.27C85.7298 15.73 85.6048 16.265 85.6048 16.875C85.6048 17.495 85.7298 18.04 85.9798 18.51C86.2398 18.97 86.5798 19.325 86.9998 19.575C87.4298 19.815 87.8948 19.935 88.3948 19.935C88.9048 19.935 89.3698 19.815 89.7898 19.575C90.2198 19.325 90.5598 18.97 90.8098 18.51C91.0598 18.04 91.1848 17.49 91.1848 16.86ZM99.8366 14.925V16.08H93.8516V14.925H99.8366ZM105.743 21.135C104.973 21.135 104.273 20.96 103.643 20.61C103.023 20.26 102.533 19.765 102.173 19.125C101.823 18.475 101.648 17.725 101.648 16.875C101.648 16.035 101.828 15.295 102.188 14.655C102.558 14.005 103.058 13.51 103.688 13.17C104.318 12.82 105.023 12.645 105.803 12.645C106.583 12.645 107.288 12.82 107.918 13.17C108.548 13.51 109.043 14 109.403 14.64C109.773 15.28 109.958 16.025 109.958 16.875C109.958 17.725 109.768 18.475 109.388 19.125C109.018 19.765 108.513 20.26 107.873 20.61C107.233 20.96 106.523 21.135 105.743 21.135ZM105.743 19.935C106.233 19.935 106.693 19.82 107.123 19.59C107.553 19.36 107.898 19.015 108.158 18.555C108.428 18.095 108.563 17.535 108.563 16.875C108.563 16.215 108.433 15.655 108.173 15.195C107.913 14.735 107.573 14.395 107.153 14.175C106.733 13.945 106.278 13.83 105.788 13.83C105.288 13.83 104.828 13.945 104.408 14.175C103.998 14.395 103.668 14.735 103.418 15.195C103.168 15.655 103.043 16.215 103.043 16.875C103.043 17.545 103.163 18.11 103.403 18.57C103.653 19.03 103.983 19.375 104.393 19.605C104.803 19.825 105.253 19.935 105.743 19.935ZM114.858 13.905H113.133V21H111.768V13.905H110.703V12.78H111.768V12.195C111.768 11.275 112.003 10.605 112.473 10.185C112.953 9.755 113.718 9.54 114.768 9.54V10.68C114.168 10.68 113.743 10.8 113.493 11.04C113.253 11.27 113.133 11.655 113.133 12.195V12.78H114.858V13.905ZM119.555 13.905H117.83V21H116.465V13.905H115.4V12.78H116.465V12.195C116.465 11.275 116.7 10.605 117.17 10.185C117.65 9.755 118.415 9.54 119.465 9.54V10.68C118.865 10.68 118.44 10.8 118.19 11.04C117.95 11.27 117.83 11.655 117.83 12.195V12.78H119.555V13.905Z" fill="#020202"/>
<path d="M238.726 10.545C239.866 10.545 240.851 10.76 241.681 11.19C242.521 11.61 243.161 12.215 243.601 13.005C244.051 13.795 244.276 14.725 244.276 15.795C244.276 16.865 244.051 17.795 243.601 18.585C243.161 19.365 242.521 19.965 241.681 20.385C240.851 20.795 239.866 21 238.726 21H235.471V10.545H238.726ZM238.726 19.875C240.076 19.875 241.106 19.52 241.816 18.81C242.526 18.09 242.881 17.085 242.881 15.795C242.881 14.495 242.521 13.48 241.801 12.75C241.091 12.02 240.066 11.655 238.726 11.655H236.836V19.875H238.726ZM253.337 16.575C253.337 16.835 253.322 17.11 253.292 17.4H246.722C246.772 18.21 247.047 18.845 247.547 19.305C248.057 19.755 248.672 19.98 249.392 19.98C249.982 19.98 250.472 19.845 250.862 19.575C251.262 19.295 251.542 18.925 251.702 18.465H253.172C252.952 19.255 252.512 19.9 251.852 20.4C251.192 20.89 250.372 21.135 249.392 21.135C248.612 21.135 247.912 20.96 247.292 20.61C246.682 20.26 246.202 19.765 245.852 19.125C245.502 18.475 245.327 17.725 245.327 16.875C245.327 16.025 245.497 15.28 245.837 14.64C246.177 14 246.652 13.51 247.262 13.17C247.882 12.82 248.592 12.645 249.392 12.645C250.172 12.645 250.862 12.815 251.462 13.155C252.062 13.495 252.522 13.965 252.842 14.565C253.172 15.155 253.337 15.825 253.337 16.575ZM251.927 16.29C251.927 15.77 251.812 15.325 251.582 14.955C251.352 14.575 251.037 14.29 250.637 14.1C250.247 13.9 249.812 13.8 249.332 13.8C248.642 13.8 248.052 14.02 247.562 14.46C247.082 14.9 246.807 15.51 246.737 16.29H251.927ZM256.263 9.9V21H254.898V9.9H256.263ZM259.055 11.445C258.795 11.445 258.575 11.355 258.395 11.175C258.215 10.995 258.125 10.775 258.125 10.515C258.125 10.255 258.215 10.035 258.395 9.855C258.575 9.675 258.795 9.585 259.055 9.585C259.305 9.585 259.515 9.675 259.685 9.855C259.865 10.035 259.955 10.255 259.955 10.515C259.955 10.775 259.865 10.995 259.685 11.175C259.515 11.355 259.305 11.445 259.055 11.445ZM259.715 12.78V21H258.35V12.78H259.715ZM264.861 19.74L267.411 12.78H268.866L265.641 21H264.051L260.826 12.78H262.296L264.861 19.74ZM277.469 16.575C277.469 16.835 277.454 17.11 277.424 17.4H270.854C270.904 18.21 271.179 18.845 271.679 19.305C272.189 19.755 272.804 19.98 273.524 19.98C274.114 19.98 274.604 19.845 274.994 19.575C275.394 19.295 275.674 18.925 275.834 18.465H277.304C277.084 19.255 276.644 19.9 275.984 20.4C275.324 20.89 274.504 21.135 273.524 21.135C272.744 21.135 272.044 20.96 271.424 20.61C270.814 20.26 270.334 19.765 269.984 19.125C269.634 18.475 269.459 17.725 269.459 16.875C269.459 16.025 269.629 15.28 269.969 14.64C270.309 14 270.784 13.51 271.394 13.17C272.014 12.82 272.724 12.645 273.524 12.645C274.304 12.645 274.994 12.815 275.594 13.155C276.194 13.495 276.654 13.965 276.974 14.565C277.304 15.155 277.469 15.825 277.469 16.575ZM276.059 16.29C276.059 15.77 275.944 15.325 275.714 14.955C275.484 14.575 275.169 14.29 274.769 14.1C274.379 13.9 273.944 13.8 273.464 13.8C272.774 13.8 272.184 14.02 271.694 14.46C271.214 14.9 270.939 15.51 270.869 16.29H276.059ZM280.396 14.115C280.636 13.645 280.976 13.28 281.416 13.02C281.866 12.76 282.411 12.63 283.051 12.63V14.04H282.691C281.161 14.04 280.396 14.87 280.396 16.53V21H279.031V12.78H280.396V14.115ZM291.467 12.78L286.517 24.87H285.107L286.727 20.91L283.412 12.78H284.927L287.507 19.44L290.057 12.78H291.467Z" fill="#020202"/>
</svg>
