<svg width="375" height="44" viewBox="0 0 375 44" fill="none" xmlns="http://www.w3.org/2000/svg">
<path d="M291.422 23.2603H294.369L296.934 28H298.685L295.913 23.0278C297.415 22.5547 298.32 21.2598 298.32 19.5913C298.32 17.4331 296.809 16.022 294.501 16.022H289.928V28H291.422V23.2603ZM291.422 17.3501H294.302C295.846 17.3501 296.776 18.2051 296.776 19.6411C296.776 21.1104 295.904 21.9321 294.369 21.9321H291.422V17.3501ZM301.191 17.3252C301.738 17.3252 302.187 16.877 302.187 16.3291C302.187 15.7812 301.738 15.333 301.191 15.333C300.643 15.333 300.194 15.7812 300.194 16.3291C300.194 16.877 300.643 17.3252 301.191 17.3252ZM300.477 28H301.904V19.0518H300.477V28ZM307.905 31.4365C310.345 31.4365 311.889 30.1582 311.889 28.1577V19.0518H310.528V20.4712H310.395C309.88 19.5083 308.776 18.894 307.523 18.894C305.223 18.894 303.771 20.7119 303.771 23.3931C303.771 26.0742 305.207 27.8672 307.523 27.8672C308.751 27.8672 309.764 27.311 310.328 26.3232H310.461V28.083C310.461 29.4028 309.507 30.1914 307.905 30.1914C306.618 30.1914 305.821 29.7183 305.663 28.9878H304.153C304.368 30.4653 305.746 31.4365 307.905 31.4365ZM307.838 26.6055C306.178 26.6055 305.248 25.3438 305.248 23.3931C305.248 21.4424 306.178 20.1807 307.838 20.1807C309.49 20.1807 310.494 21.4424 310.494 23.3931C310.494 25.3438 309.498 26.6055 307.838 26.6055ZM314.253 28H315.681V22.7041C315.681 21.1934 316.561 20.1807 318.163 20.1807C319.516 20.1807 320.23 20.9692 320.23 22.5547V28H321.658V22.2061C321.658 20.106 320.462 18.894 318.57 18.894C317.2 18.894 316.262 19.4751 315.814 20.4629H315.681V15.499H314.253V28ZM324.454 16.7358V19.0518H323.01V20.2471H324.454V25.6758C324.454 27.3857 325.193 28.0664 327.035 28.0664C327.318 28.0664 327.592 28.0332 327.874 27.9834V26.7798C327.608 26.8047 327.467 26.813 327.21 26.813C326.28 26.813 325.882 26.3647 325.882 25.3105V20.2471H327.874V19.0518H325.882V16.7358H324.454ZM338.803 28V17.3667H342.663V16.022H333.449V17.3667H337.309V28H338.803ZM344.961 17.3252C345.509 17.3252 345.957 16.877 345.957 16.3291C345.957 15.7812 345.509 15.333 344.961 15.333C344.413 15.333 343.965 15.7812 343.965 16.3291C343.965 16.877 344.413 17.3252 344.961 17.3252ZM344.247 28H345.675V19.0518H344.247V28ZM348.587 16.7358V19.0518H347.143V20.2471H348.587V25.6758C348.587 27.3857 349.326 28.0664 351.169 28.0664C351.451 28.0664 351.725 28.0332 352.007 27.9834V26.7798C351.742 26.8047 351.601 26.813 351.343 26.813C350.414 26.813 350.015 26.3647 350.015 25.3105V20.2471H352.007V19.0518H350.015V16.7358H348.587ZM353.841 28H355.268V15.499H353.841V28ZM363.56 25.6841C363.186 26.4727 362.406 26.896 361.252 26.896C359.733 26.896 358.745 25.7754 358.67 24.0073V23.9409H365.104V23.3931C365.104 20.6123 363.634 18.894 361.219 18.894C358.762 18.894 357.185 20.7202 357.185 23.5342C357.185 26.3647 358.737 28.1577 361.219 28.1577C363.178 28.1577 364.572 27.2114 364.987 25.6841H363.56ZM361.202 20.1558C362.622 20.1558 363.568 21.2017 363.601 22.7871H358.67C358.778 21.2017 359.774 20.1558 361.202 20.1558Z" fill="#757575"/>
<path d="M176.913 27V16.8232H180.607V15.022H171.086V16.8232H174.771V27H176.913ZM183.104 16.4082C183.784 16.4082 184.341 15.8687 184.341 15.188C184.341 14.5156 183.784 13.9678 183.104 13.9678C182.431 13.9678 181.875 14.5156 181.875 15.188C181.875 15.8687 182.431 16.4082 183.104 16.4082ZM182.083 27H184.133V17.9272H182.083V27ZM186.938 15.7026V17.9854H185.501V19.5874H186.938V24.5928C186.938 26.3442 187.768 27.0415 189.851 27.0415C190.25 27.0415 190.631 27.0083 190.93 26.9502V25.373C190.681 25.3979 190.523 25.4146 190.233 25.4146C189.37 25.4146 188.988 25.0078 188.988 24.103V19.5874H190.93V17.9854H188.988V15.7026H186.938ZM192.664 27H194.722V14.416H192.664V27ZM202.839 24.5181C202.54 25.1987 201.835 25.5806 200.814 25.5806C199.461 25.5806 198.589 24.6177 198.539 23.082V22.9741H204.881V22.3184C204.881 19.4712 203.329 17.7529 200.739 17.7529C198.108 17.7529 196.473 19.5874 196.473 22.501C196.473 25.4062 198.083 27.1826 200.756 27.1826C202.897 27.1826 204.416 26.1533 204.79 24.5181H202.839ZM200.731 19.355C201.968 19.355 202.781 20.2266 202.823 21.6045H198.548C198.639 20.2432 199.502 19.355 200.731 19.355Z" fill="#020202"/>
<path d="M24.6094 32.3906C24.8672 32.6484 25.1953 32.7891 25.582 32.7891C26.3555 32.7891 26.9766 32.1797 26.9766 31.4062C26.9766 31.0195 26.8125 30.668 26.543 30.3984L18.3398 22.3828L26.543 14.3906C26.8125 14.1211 26.9766 13.7578 26.9766 13.3828C26.9766 12.6094 26.3555 12 25.582 12C25.1953 12 24.8672 12.1406 24.6094 12.3984L15.4922 21.3047C15.1641 21.6094 15.0117 21.9844 15 22.3945C15 22.8047 15.1641 23.1562 15.4922 23.4727L24.6094 32.3906Z" fill="#757575"/>
<path d="M41.7988 26.6553H36.0215V16.022H34.5273V28H41.7988V26.6553ZM49.1106 25.6841C48.737 26.4727 47.9567 26.896 46.8029 26.896C45.2839 26.896 44.2961 25.7754 44.2214 24.0073V23.9409H50.6545V23.3931C50.6545 20.6123 49.1853 18.894 46.7697 18.894C44.3127 18.894 42.7356 20.7202 42.7356 23.5342C42.7356 26.3647 44.2878 28.1577 46.7697 28.1577C48.7287 28.1577 50.1233 27.2114 50.5383 25.6841H49.1106ZM46.7531 20.1558C48.1726 20.1558 49.1189 21.2017 49.1521 22.7871H44.2214C44.3293 21.2017 45.3254 20.1558 46.7531 20.1558ZM53.0854 28H54.5131V20.2471H56.5634V19.0518H54.5131V18.0972C54.5131 17.1177 54.9447 16.6196 55.974 16.6196C56.2314 16.6196 56.4721 16.6279 56.6464 16.6611V15.499C56.3476 15.4409 56.0321 15.416 55.6835 15.416C53.9819 15.416 53.0854 16.271 53.0854 18.0557V19.0518H51.5995V20.2471H53.0854V28ZM58.8365 16.7358V19.0518H57.3922V20.2471H58.8365V25.6758C58.8365 27.3857 59.5753 28.0664 61.4181 28.0664C61.7003 28.0664 61.9742 28.0332 62.2565 27.9834V26.7798C61.9908 26.8047 61.8497 26.813 61.5924 26.813C60.6627 26.813 60.2643 26.3647 60.2643 25.3105V20.2471H62.2565V19.0518H60.2643V16.7358H58.8365ZM73.1861 28V17.3667H77.0459V16.022H67.8321V17.3667H71.6919V28H73.1861ZM79.344 17.3252C79.8918 17.3252 80.3401 16.877 80.3401 16.3291C80.3401 15.7812 79.8918 15.333 79.344 15.333C78.7961 15.333 78.3479 15.7812 78.3479 16.3291C78.3479 16.877 78.7961 17.3252 79.344 17.3252ZM78.6301 28H80.0579V19.0518H78.6301V28ZM82.9702 16.7358V19.0518H81.5258V20.2471H82.9702V25.6758C82.9702 27.3857 83.7089 28.0664 85.5517 28.0664C85.8339 28.0664 86.1079 28.0332 86.3901 27.9834V26.7798C86.1245 26.8047 85.9834 26.813 85.726 26.813C84.7963 26.813 84.3979 26.3647 84.3979 25.3105V20.2471H86.3901V19.0518H84.3979V16.7358H82.9702ZM88.2233 28H89.651V15.499H88.2233V28ZM97.9423 25.6841C97.5687 26.4727 96.7884 26.896 95.6346 26.896C94.1156 26.896 93.1278 25.7754 93.0531 24.0073V23.9409H99.4862V23.3931C99.4862 20.6123 98.017 18.894 95.6014 18.894C93.1444 18.894 91.5673 20.7202 91.5673 23.5342C91.5673 26.3647 93.1195 28.1577 95.6014 28.1577C97.5604 28.1577 98.955 27.2114 99.37 25.6841H97.9423ZM95.5848 20.1558C97.0043 20.1558 97.9506 21.2017 97.9838 22.7871H93.0531C93.161 21.2017 94.1571 20.1558 95.5848 20.1558Z" fill="#757575"/>
</svg>
