<svg width="375" height="44" viewBox="0 0 375 44" fill="none" xmlns="http://www.w3.org/2000/svg">
<g clip-path="url(#clip0_2_134)">
<rect width="375" height="44" fill="white"/>
<path d="M78 -2H297V-2C294.894 -1.39731 293.418 0.495246 293.345 2.68446L293.317 3.5618V3.5618C293.317 17.0587 282.375 28 268.878 28H106.122C92.6249 28 81.6835 17.0587 81.6835 3.5618V3.5618L81.6545 2.68447C81.5823 0.49525 80.1059 -1.39731 78 -2V-2Z" fill="#020202"/>
<path d="M36.7974 29.2563C39.4854 29.2563 41.082 27.1543 41.082 23.5874C41.082 20.0864 39.3828 18.1675 36.856 18.1675C34.5562 18.1675 32.9302 19.7129 32.9302 21.8735C32.9302 23.9023 34.395 25.3818 36.4092 25.3818C37.647 25.3818 38.6504 24.8105 39.1484 23.8071H39.2729C39.251 26.29 38.3647 27.7109 36.8193 27.7109C35.9111 27.7109 35.186 27.2129 34.959 26.4072H33.0767C33.3843 28.1284 34.8638 29.2563 36.7974 29.2563ZM36.8633 23.9243C35.6328 23.9243 34.7832 23.0601 34.7832 21.8149C34.7832 20.6211 35.6768 19.7056 36.8706 19.7056C38.0645 19.7056 38.958 20.6357 38.958 21.8516C38.958 23.0527 38.0864 23.9243 36.8633 23.9243ZM44.0799 22.1592C44.7757 22.1592 45.2518 21.6758 45.2518 21.0239C45.2518 20.3721 44.7757 19.8887 44.0799 19.8887C43.3914 19.8887 42.908 20.3721 42.908 21.0239C42.908 21.6758 43.3914 22.1592 44.0799 22.1592ZM44.0799 27.5352C44.7757 27.5352 45.2518 27.0444 45.2518 26.3999C45.2518 25.748 44.7757 25.2646 44.0799 25.2646C43.3914 25.2646 42.908 25.748 42.908 26.3999C42.908 27.0444 43.3914 27.5352 44.0799 27.5352ZM52.234 29H54.0431V26.9712H55.4713V25.4111H54.0431V18.4312H51.3771C49.9415 20.6138 48.4401 23.0454 47.0704 25.4258V26.9712H52.234V29ZM48.8209 25.3452C49.8537 23.5508 51.0768 21.5952 52.1608 19.9399H52.2633V25.4551H48.8209V25.3452ZM59.4799 29H61.3696V18.4312H59.4873L56.726 20.3721V22.1519L59.3554 20.2915H59.4799V29Z" fill="#020202"/>
<path fill-rule="evenodd" clip-rule="evenodd" d="M312 18H311C310.448 18 310 18.4477 310 19V27.6667C310 28.219 310.448 28.6667 311 28.6667H312C312.552 28.6667 313 28.219 313 27.6667V19C313 18.4477 312.552 18 312 18ZM306.333 20.3333H307.333C307.886 20.3333 308.333 20.781 308.333 21.3333V27.6667C308.333 28.219 307.886 28.6667 307.333 28.6667H306.333C305.781 28.6667 305.333 28.219 305.333 27.6667V21.3333C305.333 20.781 305.781 20.3333 306.333 20.3333ZM302.667 22.6667H301.667C301.114 22.6667 300.667 23.1144 300.667 23.6667V27.6667C300.667 28.219 301.114 28.6667 301.667 28.6667H302.667C303.219 28.6667 303.667 28.219 303.667 27.6667V23.6667C303.667 23.1144 303.219 22.6667 302.667 22.6667ZM298 24.6667H297C296.448 24.6667 296 25.1144 296 25.6667V27.6667C296 28.219 296.448 28.6667 297 28.6667H298C298.552 28.6667 299 28.219 299 27.6667V25.6667C299 25.1144 298.552 24.6667 298 24.6667Z" fill="#020202"/>
<path fill-rule="evenodd" clip-rule="evenodd" d="M330.94 22.6557C329.334 21.1289 327.202 20.2774 324.987 20.2773C322.77 20.2773 320.639 21.1288 319.033 22.6557C318.912 22.7737 318.719 22.7722 318.6 22.6523L317.443 21.4857C317.383 21.4249 317.349 21.3426 317.35 21.257C317.351 21.1715 317.385 21.0896 317.446 21.0297C321.661 16.9901 328.311 16.9901 332.526 21.0297C332.587 21.0897 332.622 21.1715 332.622 21.2571C332.623 21.3427 332.589 21.4249 332.529 21.4857L331.373 22.6523C331.254 22.772 331.061 22.7735 330.94 22.6557ZM324.987 24.073C326.204 24.0729 327.378 24.5254 328.281 25.3427C328.403 25.4586 328.595 25.4561 328.714 25.337L329.869 24.1703C329.929 24.1091 329.963 24.0261 329.962 23.9398C329.961 23.8536 329.926 23.7713 329.864 23.7113C327.116 21.1549 322.86 21.1549 320.112 23.7113C320.05 23.7713 320.014 23.8536 320.013 23.9399C320.013 24.0262 320.046 24.1092 320.107 24.1703L321.262 25.337C321.381 25.4561 321.573 25.4586 321.695 25.3427C322.597 24.526 323.77 24.0735 324.987 24.073ZM327.206 26.8573C327.267 26.7967 327.301 26.7133 327.3 26.6268C327.298 26.5403 327.26 26.4584 327.196 26.4003C325.921 25.3214 324.052 25.3214 322.777 26.4003C322.713 26.4583 322.675 26.5402 322.673 26.6267C322.672 26.7132 322.706 26.7967 322.767 26.8573L324.765 28.873C324.823 28.9322 324.903 28.9656 324.987 28.9656C325.07 28.9656 325.15 28.9322 325.208 28.873L327.206 26.8573Z" fill="#020202"/>
<g clip-path="url(#clip1_2_134)">
<path opacity="0.35" d="M338.667 17.5H355.333C356.53 17.5 357.5 18.47 357.5 19.6667V25.6667C357.5 26.8633 356.53 27.8333 355.333 27.8333H338.667C337.47 27.8333 336.5 26.8633 336.5 25.6667V19.6667C336.5 18.47 337.47 17.5 338.667 17.5Z" stroke="#020202"/>
<path opacity="0.4" d="M359 20.6667V24.6667C359.805 24.3279 360.328 23.5398 360.328 22.6667C360.328 21.7936 359.805 21.0055 359 20.6667" fill="#020202"/>
<path d="M338 20.3333C338 19.597 338.597 19 339.333 19H354.667C355.403 19 356 19.597 356 20.3333V25C356 25.7364 355.403 26.3333 354.667 26.3333H339.333C338.597 26.3333 338 25.7364 338 25V20.3333Z" fill="#020202"/>
</g>
</g>
<defs>
<clipPath id="clip0_2_134">
<rect width="375" height="44" fill="white"/>
</clipPath>
<clipPath id="clip1_2_134">
<rect width="25" height="16" fill="white" transform="translate(335 15)"/>
</clipPath>
</defs>
</svg>
