<svg width="375" height="99" viewBox="0 0 375 99" fill="none" xmlns="http://www.w3.org/2000/svg">
<g filter="url(#filter0_d_2_135)">
<rect width="375" height="53" transform="translate(0 12)" fill="white"/>
<rect x="26" y="22" width="18" height="18" rx="5" stroke="#424242" stroke-width="2"/>
<path d="M27.6529 58.0479H24.3521V51.9541H23.2583V59H27.6529V58.0479ZM30.1472 59.0879C30.8455 59.0879 31.4265 58.7852 31.7439 58.248H31.8269V59H32.8377V55.3721C32.8377 54.2588 32.0857 53.5947 30.7527 53.5947C29.5466 53.5947 28.6873 54.1758 28.5798 55.0693H29.5955C29.7127 54.6836 30.1179 54.4639 30.7039 54.4639C31.4216 54.4639 31.7927 54.791 31.7927 55.3721V55.8359L30.3523 55.9238C29.0877 56.002 28.3748 56.5537 28.3748 57.5059C28.3748 58.4727 29.1218 59.0879 30.1472 59.0879ZM30.4158 58.2432C29.8445 58.2432 29.4295 57.9551 29.4295 57.4619C29.4295 56.9785 29.7615 56.7197 30.4939 56.6709L31.7927 56.583V57.042C31.7927 57.7256 31.2068 58.2432 30.4158 58.2432ZM36.9092 59.0879C38.252 59.0879 39.1064 58.0186 39.1064 56.3486C39.1064 54.6641 38.2568 53.6045 36.9092 53.6045C36.1816 53.6045 35.5566 53.9609 35.2734 54.5371H35.1904V51.6172H34.1406V59H35.1514V58.1602H35.2295C35.5469 58.7461 36.167 59.0879 36.9092 59.0879ZM36.6064 54.5029C37.4951 54.5029 38.0273 55.2012 38.0273 56.3486C38.0273 57.4961 37.4951 58.1895 36.6064 58.1895C35.7227 58.1895 35.1758 57.4863 35.1709 56.3486C35.1758 55.2109 35.7275 54.5029 36.6064 54.5029ZM43.6174 57.5791C43.4221 58.0088 42.9875 58.2432 42.3528 58.2432C41.5129 58.2432 40.9709 57.6377 40.9368 56.6758V56.627H44.6916V56.2656C44.6916 54.6055 43.7981 53.5947 42.3186 53.5947C40.8196 53.5947 39.8674 54.6738 39.8674 56.3584C39.8674 58.0527 40.8 59.1025 42.3235 59.1025C43.5393 59.1025 44.3987 58.5166 44.6282 57.5791H43.6174ZM42.3137 54.4492C43.0901 54.4492 43.5979 55.0107 43.6223 55.8701H40.9368C40.9954 55.0156 41.5373 54.4492 42.3137 54.4492ZM45.7602 59H46.81V51.6172H45.7602V59Z" fill="#212121"/>
<rect x="102" y="22" width="18" height="18" rx="5" stroke="#424242" stroke-width="2"/>
<path d="M103.653 58.0479H100.352V51.9541H99.2583V59H103.653V58.0479ZM106.147 59.0879C106.845 59.0879 107.427 58.7852 107.744 58.248H107.827V59H108.838V55.3721C108.838 54.2588 108.086 53.5947 106.753 53.5947C105.547 53.5947 104.687 54.1758 104.58 55.0693H105.595C105.713 54.6836 106.118 54.4639 106.704 54.4639C107.422 54.4639 107.793 54.791 107.793 55.3721V55.8359L106.352 55.9238C105.088 56.002 104.375 56.5537 104.375 57.5059C104.375 58.4727 105.122 59.0879 106.147 59.0879ZM106.416 58.2432C105.844 58.2432 105.429 57.9551 105.429 57.4619C105.429 56.9785 105.761 56.7197 106.494 56.6709L107.793 56.583V57.042C107.793 57.7256 107.207 58.2432 106.416 58.2432ZM112.909 59.0879C114.252 59.0879 115.106 58.0186 115.106 56.3486C115.106 54.6641 114.257 53.6045 112.909 53.6045C112.182 53.6045 111.557 53.9609 111.273 54.5371H111.19V51.6172H110.141V59H111.151V58.1602H111.229C111.547 58.7461 112.167 59.0879 112.909 59.0879ZM112.606 54.5029C113.495 54.5029 114.027 55.2012 114.027 56.3486C114.027 57.4961 113.495 58.1895 112.606 58.1895C111.723 58.1895 111.176 57.4863 111.171 56.3486C111.176 55.2109 111.728 54.5029 112.606 54.5029ZM119.617 57.5791C119.422 58.0088 118.988 58.2432 118.353 58.2432C117.513 58.2432 116.971 57.6377 116.937 56.6758V56.627H120.692V56.2656C120.692 54.6055 119.798 53.5947 118.319 53.5947C116.82 53.5947 115.867 54.6738 115.867 56.3584C115.867 58.0527 116.8 59.1025 118.323 59.1025C119.539 59.1025 120.399 58.5166 120.628 57.5791H119.617ZM118.314 54.4492C119.09 54.4492 119.598 55.0107 119.622 55.8701H116.937C116.995 55.0156 117.537 54.4492 118.314 54.4492ZM121.76 59H122.81V51.6172H121.76V59Z" fill="#212121"/>
<rect x="178" y="22" width="18" height="18" rx="5" stroke="#424242" stroke-width="2"/>
<path d="M179.653 58.0479H176.352V51.9541H175.258V59H179.653V58.0479ZM182.147 59.0879C182.845 59.0879 183.427 58.7852 183.744 58.248H183.827V59H184.838V55.3721C184.838 54.2588 184.086 53.5947 182.753 53.5947C181.547 53.5947 180.687 54.1758 180.58 55.0693H181.595C181.713 54.6836 182.118 54.4639 182.704 54.4639C183.422 54.4639 183.793 54.791 183.793 55.3721V55.8359L182.352 55.9238C181.088 56.002 180.375 56.5537 180.375 57.5059C180.375 58.4727 181.122 59.0879 182.147 59.0879ZM182.416 58.2432C181.844 58.2432 181.429 57.9551 181.429 57.4619C181.429 56.9785 181.761 56.7197 182.494 56.6709L183.793 56.583V57.042C183.793 57.7256 183.207 58.2432 182.416 58.2432ZM188.909 59.0879C190.252 59.0879 191.106 58.0186 191.106 56.3486C191.106 54.6641 190.257 53.6045 188.909 53.6045C188.182 53.6045 187.557 53.9609 187.273 54.5371H187.19V51.6172H186.141V59H187.151V58.1602H187.229C187.547 58.7461 188.167 59.0879 188.909 59.0879ZM188.606 54.5029C189.495 54.5029 190.027 55.2012 190.027 56.3486C190.027 57.4961 189.495 58.1895 188.606 58.1895C187.723 58.1895 187.176 57.4863 187.171 56.3486C187.176 55.2109 187.728 54.5029 188.606 54.5029ZM195.617 57.5791C195.422 58.0088 194.988 58.2432 194.353 58.2432C193.513 58.2432 192.971 57.6377 192.937 56.6758V56.627H196.692V56.2656C196.692 54.6055 195.798 53.5947 194.319 53.5947C192.82 53.5947 191.867 54.6738 191.867 56.3584C191.867 58.0527 192.8 59.1025 194.323 59.1025C195.539 59.1025 196.399 58.5166 196.628 57.5791H195.617ZM194.314 54.4492C195.09 54.4492 195.598 55.0107 195.622 55.8701H192.937C192.995 55.0156 193.537 54.4492 194.314 54.4492ZM197.76 59H198.81V51.6172H197.76V59Z" fill="#212121"/>
<rect x="254" y="22" width="18" height="18" rx="5" stroke="#424242" stroke-width="2"/>
<path d="M255.653 58.0479H252.352V51.9541H251.258V59H255.653V58.0479ZM258.147 59.0879C258.845 59.0879 259.427 58.7852 259.744 58.248H259.827V59H260.838V55.3721C260.838 54.2588 260.086 53.5947 258.753 53.5947C257.547 53.5947 256.687 54.1758 256.58 55.0693H257.595C257.713 54.6836 258.118 54.4639 258.704 54.4639C259.422 54.4639 259.793 54.791 259.793 55.3721V55.8359L258.352 55.9238C257.088 56.002 256.375 56.5537 256.375 57.5059C256.375 58.4727 257.122 59.0879 258.147 59.0879ZM258.416 58.2432C257.844 58.2432 257.429 57.9551 257.429 57.4619C257.429 56.9785 257.761 56.7197 258.494 56.6709L259.793 56.583V57.042C259.793 57.7256 259.207 58.2432 258.416 58.2432ZM264.909 59.0879C266.252 59.0879 267.106 58.0186 267.106 56.3486C267.106 54.6641 266.257 53.6045 264.909 53.6045C264.182 53.6045 263.557 53.9609 263.273 54.5371H263.19V51.6172H262.141V59H263.151V58.1602H263.229C263.547 58.7461 264.167 59.0879 264.909 59.0879ZM264.606 54.5029C265.495 54.5029 266.027 55.2012 266.027 56.3486C266.027 57.4961 265.495 58.1895 264.606 58.1895C263.723 58.1895 263.176 57.4863 263.171 56.3486C263.176 55.2109 263.728 54.5029 264.606 54.5029ZM271.617 57.5791C271.422 58.0088 270.988 58.2432 270.353 58.2432C269.513 58.2432 268.971 57.6377 268.937 56.6758V56.627H272.692V56.2656C272.692 54.6055 271.798 53.5947 270.319 53.5947C268.82 53.5947 267.867 54.6738 267.867 56.3584C267.867 58.0527 268.8 59.1025 270.323 59.1025C271.539 59.1025 272.399 58.5166 272.628 57.5791H271.617ZM270.314 54.4492C271.09 54.4492 271.598 55.0107 271.622 55.8701H268.937C268.995 55.0156 269.537 54.4492 270.314 54.4492ZM273.76 59H274.81V51.6172H273.76V59Z" fill="#212121"/>
<rect x="330" y="22" width="18" height="18" rx="5" stroke="#424242" stroke-width="2"/>
<path d="M331.653 58.0479H328.352V51.9541H327.258V59H331.653V58.0479ZM334.147 59.0879C334.845 59.0879 335.427 58.7852 335.744 58.248H335.827V59H336.838V55.3721C336.838 54.2588 336.086 53.5947 334.753 53.5947C333.547 53.5947 332.687 54.1758 332.58 55.0693H333.595C333.713 54.6836 334.118 54.4639 334.704 54.4639C335.422 54.4639 335.793 54.791 335.793 55.3721V55.8359L334.352 55.9238C333.088 56.002 332.375 56.5537 332.375 57.5059C332.375 58.4727 333.122 59.0879 334.147 59.0879ZM334.416 58.2432C333.844 58.2432 333.429 57.9551 333.429 57.4619C333.429 56.9785 333.761 56.7197 334.494 56.6709L335.793 56.583V57.042C335.793 57.7256 335.207 58.2432 334.416 58.2432ZM340.909 59.0879C342.252 59.0879 343.106 58.0186 343.106 56.3486C343.106 54.6641 342.257 53.6045 340.909 53.6045C340.182 53.6045 339.557 53.9609 339.273 54.5371H339.19V51.6172H338.141V59H339.151V58.1602H339.229C339.547 58.7461 340.167 59.0879 340.909 59.0879ZM340.606 54.5029C341.495 54.5029 342.027 55.2012 342.027 56.3486C342.027 57.4961 341.495 58.1895 340.606 58.1895C339.723 58.1895 339.176 57.4863 339.171 56.3486C339.176 55.2109 339.728 54.5029 340.606 54.5029ZM347.617 57.5791C347.422 58.0088 346.988 58.2432 346.353 58.2432C345.513 58.2432 344.971 57.6377 344.937 56.6758V56.627H348.692V56.2656C348.692 54.6055 347.798 53.5947 346.319 53.5947C344.82 53.5947 343.867 54.6738 343.867 56.3584C343.867 58.0527 344.8 59.1025 346.323 59.1025C347.539 59.1025 348.399 58.5166 348.628 57.5791H347.617ZM346.314 54.4492C347.09 54.4492 347.598 55.0107 347.622 55.8701H344.937C344.995 55.0156 345.537 54.4492 346.314 54.4492ZM349.76 59H350.81V51.6172H349.76V59Z" fill="#212121"/>
<rect width="375" height="34" transform="translate(0 65)" fill="white"/>
<rect x="121" y="86" width="134" height="5" rx="2.5" fill="#020202"/>
</g>
<defs>
<filter id="filter0_d_2_135" x="-8" y="0" width="391" height="103" filterUnits="userSpaceOnUse" color-interpolation-filters="sRGB">
<feFlood flood-opacity="0" result="BackgroundImageFix"/>
<feColorMatrix in="SourceAlpha" type="matrix" values="0 0 0 0 0 0 0 0 0 0 0 0 0 0 0 0 0 0 127 0" result="hardAlpha"/>
<feOffset dy="-4"/>
<feGaussianBlur stdDeviation="4"/>
<feColorMatrix type="matrix" values="0 0 0 0 0 0 0 0 0 0 0 0 0 0 0 0 0 0 0.2 0"/>
<feBlend mode="normal" in2="BackgroundImageFix" result="effect1_dropShadow_2_135"/>
<feBlend mode="normal" in="SourceGraphic" in2="effect1_dropShadow_2_135" result="shape"/>
</filter>
</defs>
</svg>
