<svg width="12" height="11" viewBox="0 0 12 11" fill="none" xmlns="http://www.w3.org/2000/svg">
<path d="M11.0747 0.967095C10.7815 0.660498 10.4333 0.417283 10.0502 0.251346C9.66699 0.0854083 9.25629 0 8.84153 0C8.42677 0 8.01606 0.0854083 7.63289 0.251346C7.24972 0.417283 6.90158 0.660498 6.60837 0.967095L5.99985 1.6031L5.39132 0.967095C4.79905 0.34808 3.99576 0.000320857 3.15816 0.000320864C2.32057 0.00032087 1.51728 0.34808 0.925005 0.967095C0.332734 1.58611 6.24059e-09 2.42568 0 3.3011C-6.24059e-09 4.17651 0.332734 5.01608 0.925005 5.6351L1.53353 6.27109L5.99985 10.9391L10.4662 6.27109L11.0747 5.6351C11.368 5.32864 11.6007 4.96478 11.7595 4.56431C11.9183 4.16383 12 3.73459 12 3.3011C12 2.8676 11.9183 2.43836 11.7595 2.03788C11.6007 1.63741 11.368 1.27355 11.0747 0.967095Z" fill="white"/>
</svg>
